<svg id="svg" version="1.1" xmlns="http://www.w3.org/2000/svg" xmlns:xlink="http://www.w3.org/1999/xlink" width="400" height="400" viewBox="0, 0, 400,400"><g id="svgg"><path id="path0" d="M191.794 27.545 C 191.577 27.751,187.890 28.141,183.600 28.411 C 179.310 28.682,175.489 29.064,175.109 29.261 C 174.728 29.458,172.692 29.782,170.583 29.982 C 168.474 30.181,166.521 30.533,166.244 30.764 C 165.966 30.995,164.436 31.368,162.846 31.594 C 161.255 31.819,159.432 32.273,158.796 32.602 C 158.160 32.931,157.097 33.200,156.433 33.200 C 155.770 33.200,154.636 33.455,153.914 33.766 C 153.191 34.078,149.673 35.268,146.096 36.410 C 142.519 37.553,139.506 38.628,139.400 38.800 C 139.294 38.971,138.711 39.229,138.104 39.372 C 137.497 39.516,136.280 39.970,135.400 40.382 C 131.083 42.400,129.349 43.248,128.800 43.607 C 128.470 43.824,127.750 44.185,127.200 44.411 C 126.650 44.637,124.940 45.533,123.400 46.401 C 121.860 47.269,119.970 48.299,119.200 48.690 C 118.430 49.080,117.620 49.538,117.400 49.706 C 116.492 50.399,113.949 52.000,113.756 52.000 C 113.641 52.000,112.957 52.450,112.236 53.000 C 111.514 53.550,110.794 54.000,110.634 54.000 C 110.474 54.000,110.090 54.225,109.781 54.500 C 109.473 54.775,108.811 55.307,108.310 55.683 C 107.810 56.059,106.834 56.824,106.142 57.383 C 105.450 57.942,104.746 58.400,104.576 58.400 C 104.406 58.400,103.982 58.671,103.634 59.002 C 103.285 59.334,101.470 60.809,99.600 62.280 C 97.730 63.751,96.056 65.190,95.880 65.477 C 95.704 65.765,95.387 66.000,95.176 66.000 C 93.786 66.000,76.897 83.485,71.600 90.408 C 71.050 91.127,70.285 92.049,69.900 92.458 C 69.515 92.866,69.200 93.298,69.200 93.417 C 69.200 93.536,68.441 94.661,67.513 95.917 C 66.585 97.173,65.057 99.370,64.117 100.800 C 63.178 102.230,62.271 103.580,62.102 103.800 C 61.933 104.020,61.569 104.650,61.294 105.200 C 61.019 105.750,60.409 106.830,59.939 107.600 C 58.390 110.137,57.326 112.135,54.616 117.600 C 53.143 120.570,51.592 123.666,51.169 124.479 C 50.746 125.293,50.400 126.166,50.400 126.419 C 50.400 126.672,50.138 127.446,49.818 128.140 C 49.115 129.662,48.156 132.295,47.320 135.000 C 46.979 136.100,46.559 137.180,46.386 137.400 C 46.213 137.620,45.945 138.520,45.791 139.400 C 45.637 140.280,45.283 141.364,45.006 141.809 C 44.728 142.254,44.371 143.424,44.212 144.409 C 44.053 145.394,43.693 146.564,43.412 147.010 C 43.130 147.455,42.766 148.805,42.603 150.010 C 42.440 151.214,42.082 152.650,41.809 153.200 C 41.536 153.750,41.197 155.352,41.056 156.759 C 40.915 158.167,40.595 159.565,40.344 159.867 C 40.093 160.169,39.730 162.142,39.536 164.250 C 39.342 166.358,38.995 168.436,38.764 168.867 C 38.533 169.298,38.182 171.845,37.984 174.526 C 37.785 177.206,37.399 181.020,37.126 183.000 C 36.387 188.357,36.403 218.840,37.146 219.735 C 37.826 220.554,62.266 220.712,233.849 221.004 C 332.244 221.171,351.572 221.116,351.946 220.665 C 352.367 220.158,353.027 217.357,354.036 211.800 C 354.275 210.480,354.815 207.954,355.236 206.187 C 355.656 204.420,356.000 202.244,356.000 201.351 C 356.000 200.458,356.283 198.844,356.628 197.764 C 358.490 191.946,358.643 157.444,356.822 154.041 C 356.553 153.538,356.170 151.410,355.972 149.311 C 355.773 147.212,355.444 145.293,355.240 145.047 C 355.036 144.801,354.674 143.194,354.435 141.475 C 354.196 139.756,353.844 138.046,353.653 137.675 C 353.462 137.304,353.185 136.280,353.039 135.400 C 352.892 134.520,352.435 132.810,352.022 131.600 C 351.610 130.390,350.883 128.050,350.407 126.400 C 349.932 124.750,349.195 122.630,348.771 121.689 C 348.347 120.748,348.000 119.758,348.001 119.489 C 348.002 119.220,347.659 118.280,347.239 117.400 C 346.820 116.520,346.088 114.900,345.614 113.800 C 345.139 112.700,344.581 111.530,344.374 111.200 C 344.167 110.870,343.819 110.150,343.599 109.600 C 343.380 109.050,343.020 108.330,342.799 108.000 C 342.579 107.670,342.219 106.950,341.999 106.400 C 341.780 105.850,341.426 105.130,341.214 104.800 C 341.001 104.470,340.262 103.120,339.570 101.800 C 338.879 100.480,338.184 99.310,338.026 99.200 C 337.867 99.090,337.436 98.415,337.069 97.700 C 335.399 94.454,335.120 94.000,334.798 94.000 C 334.609 94.000,334.341 93.645,334.203 93.211 C 334.066 92.777,333.018 91.202,331.874 89.711 C 330.731 88.220,329.500 86.550,329.140 86.000 C 328.780 85.450,327.971 84.421,327.342 83.714 C 326.714 83.006,325.840 81.960,325.400 81.389 C 320.195 74.636,309.121 64.116,300.052 57.311 C 299.531 56.920,298.766 56.285,298.352 55.900 C 297.939 55.515,297.518 55.200,297.418 55.200 C 297.179 55.200,294.367 53.355,293.615 52.706 C 293.293 52.428,292.716 52.020,292.334 51.800 C 291.951 51.580,289.964 50.449,287.919 49.287 C 285.874 48.125,283.930 47.002,283.600 46.793 C 283.270 46.583,282.460 46.143,281.800 45.814 C 281.140 45.485,280.330 45.049,280.000 44.844 C 279.670 44.639,277.780 43.729,275.800 42.820 C 273.820 41.912,271.480 40.815,270.600 40.383 C 269.720 39.951,268.766 39.598,268.479 39.599 C 268.193 39.600,267.293 39.255,266.479 38.833 C 265.666 38.412,263.380 37.582,261.400 36.990 C 259.420 36.398,257.440 35.763,257.000 35.579 C 255.450 34.929,250.173 33.542,247.837 33.170 C 246.538 32.963,245.257 32.613,244.991 32.393 C 244.725 32.172,243.269 31.818,241.754 31.606 C 240.239 31.393,238.016 30.945,236.813 30.610 C 235.610 30.274,233.926 30.000,233.070 30.000 C 232.214 30.000,230.319 29.736,228.857 29.414 C 223.042 28.131,192.785 26.606,191.794 27.545 M209.400 90.846 C 210.720 91.054,213.870 91.373,216.400 91.556 C 218.930 91.738,222.170 92.179,223.600 92.535 C 225.030 92.891,227.280 93.443,228.600 93.761 C 233.135 94.855,237.390 96.268,240.226 97.623 C 241.121 98.050,242.044 98.400,242.277 98.400 C 242.511 98.400,242.917 98.658,243.179 98.974 C 243.441 99.290,244.183 99.664,244.828 99.806 C 245.472 99.948,246.000 100.196,246.000 100.358 C 246.000 100.519,246.585 100.963,247.300 101.342 C 253.295 104.526,259.830 109.910,263.600 114.769 C 264.150 115.478,265.016 116.516,265.525 117.076 C 266.332 117.965,267.680 119.858,269.000 121.955 C 269.220 122.305,269.715 123.022,270.100 123.549 C 270.485 124.077,270.800 124.849,270.800 125.266 C 270.800 125.684,271.059 126.124,271.376 126.246 C 271.692 126.367,272.070 127.010,272.216 127.674 C 272.362 128.338,272.823 129.223,273.241 129.641 C 273.658 130.058,274.000 130.632,274.000 130.915 C 274.000 131.199,274.360 132.137,274.800 133.000 C 275.240 133.863,275.600 134.807,275.600 135.099 C 275.600 135.390,275.852 136.027,276.161 136.514 C 276.469 137.001,276.850 138.030,277.007 138.800 C 277.164 139.570,277.449 140.395,277.640 140.634 C 278.581 141.806,281.547 155.508,281.880 160.218 C 282.071 162.918,281.998 163.545,281.425 164.118 C 280.420 165.122,121.122 165.181,119.689 164.177 C 118.556 163.384,118.572 162.679,119.833 157.799 C 121.905 149.781,122.922 146.590,124.169 144.200 C 124.513 143.540,124.796 142.617,124.798 142.149 C 124.799 141.681,125.051 141.090,125.358 140.835 C 125.665 140.580,126.035 139.738,126.180 138.965 C 126.325 138.191,126.687 137.465,126.983 137.351 C 127.279 137.238,127.634 136.545,127.771 135.812 C 127.909 135.080,128.286 134.260,128.611 133.991 C 128.935 133.722,129.200 133.188,129.200 132.805 C 129.200 132.422,129.522 131.679,129.916 131.154 C 130.310 130.629,130.848 129.750,131.113 129.200 C 131.643 128.098,131.825 127.804,134.321 124.014 C 136.991 119.958,138.882 117.450,140.300 116.081 C 141.015 115.391,141.600 114.684,141.600 114.509 C 141.600 114.334,142.163 113.743,142.852 113.196 C 143.541 112.648,144.576 111.678,145.152 111.040 C 145.728 110.402,146.434 109.682,146.719 109.440 C 147.005 109.198,147.545 108.722,147.919 108.382 C 150.027 106.467,154.976 102.800,155.452 102.800 C 155.609 102.800,156.021 102.550,156.369 102.245 C 156.716 101.940,158.064 101.129,159.364 100.441 C 160.664 99.754,161.924 99.036,162.164 98.845 C 162.404 98.654,163.050 98.365,163.600 98.202 C 164.150 98.039,164.870 97.684,165.200 97.413 C 165.810 96.913,168.338 95.977,171.618 95.037 C 172.619 94.750,173.789 94.330,174.218 94.104 C 174.648 93.878,175.810 93.566,176.800 93.412 C 177.790 93.257,179.980 92.786,181.667 92.365 C 183.465 91.916,186.120 91.600,188.087 91.600 C 189.931 91.600,191.611 91.434,191.820 91.231 C 192.648 90.427,205.020 90.156,209.400 90.846 " stroke="none" fill="#0574cc" fill-rule="evenodd"></path><path id="path1" d="M36.534 222.629 C 36.398 222.981,36.583 225.483,36.944 228.189 C 37.305 230.896,37.600 233.845,37.600 234.744 C 37.600 235.642,37.940 238.048,38.356 240.089 C 39.369 245.061,39.975 248.079,40.587 251.200 C 43.633 266.737,51.678 287.509,59.606 300.301 C 73.637 322.944,94.101 341.609,117.200 352.834 C 123.972 356.125,127.834 357.797,131.800 359.153 C 133.120 359.605,135.460 360.443,137.000 361.015 C 138.540 361.588,140.577 362.220,141.526 362.421 C 142.475 362.621,144.095 363.045,145.126 363.363 C 150.152 364.912,154.944 366.012,160.200 366.822 C 188.139 371.128,213.589 371.250,244.000 367.225 C 265.880 364.329,289.984 356.868,304.400 348.530 C 312.873 343.629,320.299 338.343,320.644 336.967 C 320.817 336.277,320.219 334.707,318.488 331.306 C 313.625 321.752,302.941 300.720,298.216 291.400 C 291.065 277.296,291.474 277.765,288.600 280.380 C 286.802 282.015,279.719 287.600,279.442 287.600 C 279.310 287.600,278.346 288.208,277.301 288.952 C 272.939 292.053,255.326 300.000,252.814 300.000 C 252.395 300.000,251.545 300.198,250.926 300.441 C 239.683 304.843,208.052 306.560,189.352 303.784 C 148.038 297.649,119.450 267.540,116.953 227.532 C 116.806 225.184,116.538 223.024,116.358 222.732 C 115.810 221.845,36.873 221.744,36.534 222.629 " stroke="none" fill="#85bc06" fill-rule="evenodd"></path><path id="path2" d="M35.200 0.400 C 35.200 0.620,34.643 0.800,33.963 0.800 C 33.062 0.800,32.668 1.017,32.516 1.600 C 32.354 2.220,31.970 2.400,30.815 2.400 C 29.832 2.400,29.077 2.673,28.600 3.200 C 28.202 3.640,27.454 4.000,26.938 4.000 C 26.267 4.000,26.000 4.227,26.000 4.800 C 26.000 5.387,25.733 5.600,24.996 5.600 C 24.444 5.600,23.684 5.960,23.307 6.400 C 22.930 6.840,22.302 7.200,21.911 7.200 C 21.467 7.200,21.200 7.500,21.200 8.000 C 21.200 8.533,20.933 8.800,20.400 8.800 C 19.867 8.800,19.600 9.067,19.600 9.600 C 19.600 10.122,19.333 10.400,18.833 10.400 C 17.641 10.400,16.800 10.831,16.800 11.443 C 16.800 11.749,16.461 12.000,16.047 12.000 C 15.630 12.000,15.200 12.357,15.084 12.800 C 14.969 13.240,14.609 13.600,14.284 13.600 C 13.959 13.600,13.599 13.960,13.484 14.400 C 13.369 14.840,12.988 15.200,12.637 15.200 C 12.267 15.200,12.000 15.535,12.000 16.000 C 12.000 16.440,11.748 16.800,11.439 16.800 C 11.131 16.800,10.689 17.342,10.458 18.005 C 10.227 18.668,9.759 19.317,9.419 19.448 C 9.079 19.579,8.800 20.005,8.800 20.396 C 8.800 20.787,8.440 21.201,8.000 21.316 C 7.387 21.476,7.200 21.862,7.200 22.963 C 7.200 24.133,7.052 24.400,6.400 24.400 C 5.903 24.400,5.600 24.667,5.600 25.104 C 5.600 25.491,5.240 26.032,4.800 26.307 C 4.290 26.626,4.000 27.240,4.000 28.003 C 4.000 28.760,3.795 29.200,3.443 29.200 C 2.831 29.200,2.400 30.041,2.400 31.233 C 2.400 31.655,2.040 32.360,1.600 32.800 C 1.067 33.333,0.800 34.133,0.800 35.200 C 0.800 36.080,0.620 36.800,0.400 36.800 C 0.134 36.800,0.000 91.467,0.000 200.000 C 0.000 308.533,0.134 363.200,0.400 363.200 C 0.620 363.200,0.800 363.847,0.800 364.637 C 0.800 365.738,0.987 366.124,1.600 366.284 C 2.220 366.446,2.400 366.830,2.400 367.985 C 2.400 368.968,2.673 369.723,3.200 370.200 C 3.640 370.598,4.000 371.273,4.000 371.699 C 4.000 372.138,4.347 372.566,4.800 372.684 C 5.401 372.841,5.600 373.230,5.600 374.247 C 5.600 375.333,5.758 375.600,6.400 375.600 C 6.987 375.600,7.200 375.867,7.200 376.600 C 7.200 377.150,7.560 377.960,8.000 378.400 C 8.440 378.840,8.800 379.470,8.800 379.800 C 8.800 380.133,9.156 380.400,9.600 380.400 C 10.110 380.400,10.400 380.667,10.400 381.135 C 10.400 381.539,11.075 382.595,11.900 383.482 C 12.725 384.369,13.713 385.478,14.096 385.947 C 14.479 386.416,15.154 386.800,15.596 386.800 C 16.065 386.800,16.400 387.066,16.400 387.437 C 16.400 387.788,16.760 388.169,17.200 388.284 C 17.640 388.399,18.000 388.748,18.000 389.059 C 18.000 389.370,18.301 389.741,18.669 389.882 C 19.280 390.116,19.726 390.468,21.634 392.219 C 21.982 392.538,22.747 392.800,23.334 392.800 C 24.133 392.800,24.400 393.000,24.400 393.600 C 24.400 394.100,24.667 394.400,25.111 394.400 C 25.502 394.400,26.130 394.760,26.507 395.200 C 26.884 395.640,27.644 396.000,28.196 396.000 C 28.788 396.000,29.200 396.229,29.200 396.557 C 29.200 397.217,30.057 397.600,31.536 397.600 C 32.174 397.600,32.810 397.924,33.107 398.400 C 33.486 399.007,34.040 399.200,35.403 399.200 C 36.392 399.200,37.200 399.380,37.200 399.600 C 37.200 399.866,91.800 400.000,200.200 400.000 C 308.600 400.000,363.200 399.866,363.200 399.600 C 363.200 399.380,364.094 399.200,365.186 399.200 C 366.762 399.200,367.260 399.035,367.600 398.400 C 367.885 397.868,368.438 397.600,369.252 397.600 C 370.138 397.600,370.532 397.380,370.684 396.800 C 370.843 396.194,371.230 396.000,372.284 396.000 C 373.338 396.000,373.725 395.806,373.884 395.200 C 373.999 394.760,374.404 394.400,374.785 394.400 C 375.165 394.400,375.802 394.040,376.200 393.600 C 376.598 393.160,377.346 392.800,377.862 392.800 C 378.394 392.800,378.800 392.560,378.800 392.247 C 378.800 391.942,379.160 391.599,379.600 391.484 C 380.040 391.369,380.400 390.988,380.400 390.637 C 380.400 390.262,380.736 390.000,381.219 390.000 C 381.670 390.000,382.455 389.550,382.965 389.000 C 383.475 388.450,384.030 388.000,384.198 388.000 C 384.598 388.000,388.000 384.598,388.000 384.198 C 388.000 384.030,388.405 383.480,388.900 382.977 C 390.244 381.610,391.600 379.731,391.600 379.237 C 391.600 378.997,391.870 378.800,392.200 378.800 C 392.530 378.800,392.800 378.480,392.800 378.089 C 392.800 377.698,393.160 377.070,393.600 376.693 C 394.040 376.316,394.400 375.658,394.400 375.231 C 394.400 374.804,394.760 374.340,395.200 374.200 C 395.791 374.012,396.000 373.595,396.000 372.600 C 396.000 371.605,396.209 371.188,396.800 371.000 C 397.391 370.812,397.600 370.395,397.600 369.400 C 397.600 368.405,397.809 367.988,398.400 367.800 C 398.995 367.611,399.200 367.195,399.200 366.173 C 399.200 365.418,399.380 364.800,399.600 364.800 C 399.866 364.800,400.000 309.600,400.000 200.000 C 400.000 90.400,399.866 35.200,399.600 35.200 C 399.380 35.200,399.200 34.570,399.200 33.800 C 399.200 32.933,398.895 32.095,398.400 31.600 C 397.960 31.160,397.600 30.440,397.600 30.000 C 397.600 29.467,397.333 29.200,396.800 29.200 C 396.133 29.200,396.000 28.933,396.000 27.600 C 396.000 26.267,395.867 26.000,395.200 26.000 C 394.548 26.000,394.400 25.733,394.400 24.563 C 394.400 23.462,394.213 23.076,393.600 22.916 C 393.157 22.800,392.800 22.370,392.800 21.953 C 392.800 21.539,392.553 21.200,392.250 21.200 C 391.947 21.200,391.595 20.673,391.466 20.029 C 391.337 19.385,390.630 18.256,389.894 17.520 C 389.158 16.784,388.436 15.871,388.290 15.491 C 388.144 15.111,387.749 14.800,387.413 14.800 C 387.076 14.800,386.800 14.542,386.800 14.227 C 386.800 13.912,386.440 13.540,386.000 13.400 C 385.560 13.260,385.200 12.888,385.200 12.573 C 385.200 12.258,384.861 12.000,384.447 12.000 C 384.030 12.000,383.600 11.643,383.484 11.200 C 383.369 10.760,383.009 10.400,382.684 10.400 C 382.359 10.400,381.999 10.040,381.884 9.600 C 381.724 8.987,381.338 8.800,380.237 8.800 C 379.067 8.800,378.800 8.652,378.800 8.000 C 378.800 7.483,378.533 7.200,378.047 7.200 C 377.630 7.200,377.200 6.843,377.084 6.400 C 376.969 5.960,376.541 5.600,376.134 5.600 C 375.726 5.600,375.168 5.240,374.893 4.800 C 374.618 4.360,374.035 4.000,373.597 4.000 C 373.158 4.000,372.440 3.640,372.000 3.200 C 371.560 2.760,370.840 2.400,370.400 2.400 C 369.960 2.400,369.240 2.040,368.800 1.600 C 368.267 1.067,367.467 0.800,366.400 0.800 C 365.520 0.800,364.800 0.620,364.800 0.400 C 364.800 0.134,309.600 0.000,200.000 0.000 C 90.400 0.000,35.200 0.134,35.200 0.400 M223.400 26.904 C 224.500 27.241,227.200 27.620,229.400 27.746 C 231.600 27.872,234.030 28.167,234.800 28.400 C 235.570 28.634,237.640 29.006,239.400 29.226 C 241.160 29.447,243.410 29.879,244.400 30.186 C 245.390 30.493,247.010 30.869,248.000 31.020 C 248.990 31.171,250.250 31.522,250.800 31.800 C 251.350 32.078,252.610 32.438,253.600 32.600 C 254.590 32.762,255.886 33.143,256.480 33.447 C 257.074 33.751,257.891 34.000,258.296 34.000 C 258.700 34.000,259.737 34.360,260.600 34.800 C 261.463 35.240,262.492 35.600,262.886 35.600 C 263.280 35.600,264.275 35.960,265.096 36.400 C 265.916 36.840,266.834 37.200,267.134 37.200 C 267.434 37.200,268.336 37.494,269.140 37.853 C 270.767 38.581,273.047 39.584,275.900 40.829 C 280.334 42.763,287.349 46.460,288.431 47.432 C 288.779 47.745,289.210 48.000,289.390 48.000 C 289.570 48.000,290.726 48.675,291.959 49.500 C 293.191 50.325,294.483 51.180,294.830 51.400 C 297.175 52.889,299.519 54.447,300.200 54.970 C 304.106 57.967,308.357 61.455,309.282 62.423 C 309.901 63.070,310.541 63.600,310.704 63.600 C 311.050 63.600,324.000 76.559,324.000 76.905 C 324.000 77.032,324.681 77.826,325.514 78.668 C 326.346 79.511,327.831 81.280,328.814 82.600 C 329.796 83.920,330.780 85.214,331.000 85.476 C 331.220 85.738,331.850 86.605,332.400 87.403 C 332.950 88.200,334.030 89.704,334.800 90.744 C 336.112 92.516,336.713 93.455,337.781 95.400 C 338.023 95.840,338.754 97.010,339.406 98.000 C 341.267 100.826,344.538 107.084,346.619 111.800 C 347.184 113.081,348.914 116.982,349.839 119.060 C 350.148 119.754,350.400 120.609,350.400 120.962 C 350.400 121.314,350.760 122.275,351.200 123.096 C 351.640 123.916,352.000 124.857,352.000 125.186 C 352.000 125.515,352.340 126.688,352.756 127.792 C 354.907 133.506,358.375 148.770,358.392 152.600 C 358.397 153.700,358.711 155.950,359.089 157.600 C 360.125 162.112,360.133 190.103,359.100 194.125 C 358.715 195.623,358.402 197.603,358.404 198.525 C 358.407 200.111,356.852 209.148,355.981 212.600 C 355.759 213.480,355.316 215.597,354.997 217.304 C 354.404 220.472,353.601 222.494,352.703 223.075 C 352.426 223.254,299.370 223.490,234.800 223.600 L 117.400 223.800 117.525 227.400 C 117.594 229.380,117.897 231.990,118.197 233.200 C 118.497 234.410,118.868 236.480,119.020 237.800 C 119.172 239.120,119.545 240.807,119.848 241.549 C 120.152 242.291,120.400 243.214,120.400 243.600 C 120.400 245.492,124.589 256.762,126.804 260.828 C 127.454 262.023,128.171 263.420,128.396 263.934 C 133.071 274.589,151.370 290.806,164.600 296.018 C 165.920 296.538,167.180 297.090,167.400 297.245 C 169.399 298.651,183.169 302.212,191.000 303.348 C 207.815 305.787,228.352 305.010,244.600 301.320 C 253.042 299.403,255.814 298.633,258.600 297.430 C 259.260 297.145,260.880 296.502,262.200 296.001 C 264.689 295.055,271.258 291.882,273.464 290.558 C 274.159 290.141,275.700 289.233,276.888 288.539 C 279.290 287.138,286.133 281.887,288.300 279.781 C 290.871 277.285,291.929 277.587,293.827 281.363 C 294.390 282.484,295.008 283.670,295.200 284.000 C 295.392 284.330,295.798 285.140,296.103 285.800 C 296.798 287.308,300.339 294.395,300.799 295.200 C 300.988 295.530,303.232 299.940,305.786 305.000 C 308.341 310.060,310.858 315.010,311.381 316.000 C 311.904 316.990,312.593 318.340,312.913 319.000 C 313.233 319.660,314.986 323.080,316.808 326.600 C 322.887 338.339,323.135 337.471,311.600 344.804 C 311.270 345.014,310.370 345.602,309.600 346.112 C 308.830 346.622,307.930 347.174,307.600 347.338 C 307.270 347.503,306.280 348.066,305.400 348.589 C 303.473 349.734,293.367 354.800,293.009 354.800 C 292.870 354.800,291.911 355.186,290.878 355.658 C 288.750 356.630,282.304 358.996,279.600 359.799 C 278.610 360.092,277.260 360.524,276.600 360.758 C 275.523 361.140,273.916 361.591,268.000 363.173 C 267.010 363.438,265.120 363.893,263.800 364.184 C 262.480 364.476,260.320 364.981,259.000 365.307 C 255.814 366.094,250.192 367.100,246.011 367.632 C 244.148 367.869,242.508 368.133,242.369 368.219 C 242.229 368.306,237.094 368.869,230.957 369.472 C 210.328 371.498,172.494 370.763,163.937 368.170 C 163.572 368.060,161.322 367.622,158.937 367.198 C 151.803 365.928,143.983 364.057,142.526 363.271 C 142.046 363.012,141.263 362.800,140.787 362.800 C 140.311 362.800,139.354 362.542,138.660 362.226 C 137.967 361.910,136.770 361.467,136.000 361.242 C 133.327 360.461,129.798 359.134,129.420 358.768 C 129.211 358.566,128.738 358.400,128.368 358.400 C 127.292 358.400,113.966 352.307,112.591 351.186 C 112.366 351.003,111.130 350.299,109.844 349.623 C 108.558 348.947,106.708 347.855,105.733 347.197 C 104.758 346.539,103.882 346.000,103.788 346.000 C 103.593 346.000,100.297 343.849,97.600 341.963 C 95.274 340.335,88.604 335.029,86.800 333.371 C 86.030 332.663,84.249 331.030,82.843 329.742 C 76.829 324.234,72.201 318.959,64.410 308.737 C 63.965 308.152,63.600 307.477,63.600 307.237 C 63.600 306.997,63.414 306.800,63.187 306.800 C 62.961 306.800,62.657 306.485,62.512 306.100 C 62.368 305.715,61.689 304.590,61.005 303.600 C 59.283 301.111,54.771 293.063,53.603 290.400 C 53.073 289.190,52.405 287.916,52.120 287.569 C 51.834 287.221,51.600 286.805,51.600 286.644 C 51.600 286.482,51.134 285.327,50.565 284.075 C 47.526 277.392,46.663 275.162,44.812 269.200 C 43.889 266.230,42.952 263.350,42.729 262.800 C 42.506 262.250,42.074 260.630,41.768 259.200 C 41.462 257.770,40.837 254.980,40.379 253.000 C 39.920 251.020,39.371 248.410,39.157 247.200 C 38.943 245.990,38.504 243.740,38.181 242.200 C 37.857 240.660,37.411 237.622,37.189 235.450 C 36.967 233.277,36.692 231.349,36.579 231.165 C 36.465 230.981,36.185 228.529,35.956 225.715 C 35.727 222.902,35.358 219.070,35.135 217.200 C 34.515 211.997,34.260 192.971,34.779 190.600 C 35.020 189.500,35.388 185.351,35.598 181.381 C 35.836 176.859,36.207 173.515,36.589 172.430 C 36.925 171.478,37.200 169.558,37.200 168.164 C 37.200 166.769,37.452 164.857,37.761 163.914 C 38.069 162.971,38.438 161.120,38.580 159.800 C 38.723 158.480,39.091 156.590,39.398 155.600 C 39.986 153.706,41.030 149.432,41.645 146.400 C 41.846 145.410,42.368 143.564,42.805 142.298 C 43.242 141.033,43.600 139.800,43.600 139.559 C 43.600 139.318,43.858 138.554,44.174 137.860 C 44.490 137.167,44.929 135.970,45.150 135.200 C 45.989 132.271,47.569 128.298,49.020 125.468 C 49.339 124.845,49.600 124.149,49.600 123.922 C 49.600 123.369,54.783 112.914,56.799 109.400 C 57.683 107.860,58.677 106.015,59.008 105.300 C 59.340 104.585,59.788 104.000,60.005 104.000 C 60.222 104.000,60.400 103.790,60.400 103.534 C 60.400 102.979,65.401 95.463,66.226 94.779 C 66.542 94.517,66.800 94.132,66.800 93.924 C 66.800 92.920,77.654 80.091,83.622 74.041 C 86.809 70.810,96.844 61.856,98.400 60.855 C 98.950 60.501,99.580 60.014,99.800 59.773 C 100.766 58.716,111.168 51.287,113.502 49.989 C 114.106 49.653,115.590 48.748,116.800 47.978 C 118.010 47.209,119.900 46.134,121.000 45.590 C 122.100 45.045,123.090 44.488,123.200 44.351 C 123.411 44.089,130.403 40.700,133.800 39.213 C 134.900 38.732,136.278 38.082,136.862 37.769 C 137.446 37.456,138.256 37.199,138.662 37.197 C 139.068 37.196,139.940 36.837,140.600 36.400 C 141.260 35.963,142.165 35.604,142.611 35.603 C 143.057 35.601,143.799 35.336,144.259 35.014 C 144.719 34.691,145.795 34.251,146.648 34.036 C 148.185 33.649,151.085 32.754,153.400 31.952 C 157.751 30.445,171.947 27.592,175.074 27.597 C 176.215 27.599,177.655 27.401,178.274 27.157 C 181.525 25.878,219.360 25.666,223.400 26.904 M190.400 92.734 C 188.970 92.881,187.611 93.124,187.379 93.275 C 187.148 93.426,185.348 93.753,183.379 94.003 C 181.411 94.253,179.260 94.696,178.600 94.987 C 177.940 95.279,176.620 95.644,175.667 95.799 C 174.714 95.954,173.454 96.332,172.867 96.638 C 172.280 96.944,171.530 97.202,171.200 97.211 C 170.870 97.220,169.880 97.575,169.000 98.000 C 168.120 98.425,167.253 98.779,167.074 98.786 C 166.895 98.794,165.765 99.250,164.563 99.800 C 163.360 100.350,162.202 100.800,161.988 100.800 C 161.775 100.800,161.600 100.953,161.600 101.139 C 161.600 101.326,160.925 101.778,160.100 102.145 C 152.381 105.571,138.195 119.324,134.857 126.616 C 134.652 127.065,134.195 127.673,133.842 127.965 C 133.489 128.258,133.200 128.753,133.200 129.065 C 133.200 129.377,132.878 130.120,132.484 130.716 C 131.289 132.525,130.858 133.307,129.792 135.600 C 129.230 136.810,128.416 138.466,127.985 139.279 C 127.553 140.093,127.200 140.950,127.200 141.184 C 127.200 141.417,126.851 142.372,126.424 143.304 C 125.997 144.237,125.439 145.810,125.185 146.800 C 124.930 147.790,124.575 148.780,124.397 149.000 C 124.218 149.220,123.941 150.120,123.782 151.000 C 123.623 151.880,123.268 153.050,122.994 153.600 C 122.719 154.150,122.362 155.410,122.200 156.400 C 122.038 157.390,121.646 158.707,121.329 159.327 C 121.012 159.946,120.808 160.936,120.876 161.527 L 121.000 162.600 200.022 162.701 C 286.927 162.812,280.909 162.988,280.067 160.367 C 279.826 159.615,279.509 157.560,279.361 155.800 C 279.214 154.040,278.947 152.413,278.768 152.185 C 278.589 151.956,278.243 150.523,278.000 149.000 C 277.757 147.477,277.392 146.032,277.190 145.788 C 276.988 145.545,276.617 144.368,276.365 143.173 C 276.113 141.978,275.765 140.820,275.592 140.600 C 275.420 140.380,275.070 139.390,274.815 138.400 C 274.194 135.984,272.759 132.348,272.119 131.569 C 271.833 131.221,271.600 130.789,271.600 130.608 C 271.600 130.251,269.526 125.926,269.199 125.600 C 268.677 125.081,266.800 122.117,266.800 121.812 C 266.800 121.622,266.535 121.182,266.210 120.834 C 265.886 120.485,264.447 118.724,263.012 116.920 C 259.344 112.308,252.403 106.139,248.141 103.703 C 244.101 101.395,239.341 99.181,235.941 98.030 C 233.884 97.333,231.840 96.598,231.400 96.397 C 230.960 96.195,229.564 95.850,228.299 95.629 C 227.033 95.407,225.676 95.055,225.284 94.845 C 224.892 94.635,222.919 94.279,220.900 94.054 C 218.881 93.828,216.833 93.432,216.348 93.172 C 215.347 92.636,194.762 92.289,190.400 92.734 " stroke="none" fill="#fbfbfb" fill-rule="evenodd"></path><path id="path3" d="M182.400 26.391 C 180.750 26.569,178.893 26.914,178.274 27.157 C 177.655 27.401,176.215 27.599,175.074 27.597 C 171.947 27.592,157.751 30.445,153.400 31.952 C 151.085 32.754,148.185 33.649,146.648 34.036 C 145.795 34.251,144.719 34.691,144.259 35.014 C 143.799 35.336,143.057 35.601,142.611 35.603 C 142.165 35.604,141.260 35.963,140.600 36.400 C 139.940 36.837,139.068 37.196,138.662 37.197 C 138.256 37.199,137.446 37.456,136.862 37.769 C 136.278 38.082,134.900 38.732,133.800 39.213 C 130.403 40.700,123.411 44.089,123.200 44.351 C 123.090 44.488,122.100 45.045,121.000 45.590 C 119.900 46.134,118.010 47.209,116.800 47.978 C 115.590 48.748,114.106 49.653,113.502 49.989 C 111.168 51.287,100.766 58.716,99.800 59.773 C 99.580 60.014,98.950 60.501,98.400 60.855 C 96.844 61.856,86.809 70.810,83.622 74.041 C 77.654 80.091,66.800 92.920,66.800 93.924 C 66.800 94.132,66.542 94.517,66.226 94.779 C 65.401 95.463,60.400 102.979,60.400 103.534 C 60.400 103.790,60.222 104.000,60.005 104.000 C 59.788 104.000,59.340 104.585,59.008 105.300 C 58.677 106.015,57.683 107.860,56.799 109.400 C 54.783 112.914,49.600 123.369,49.600 123.922 C 49.600 124.149,49.339 124.845,49.020 125.468 C 47.569 128.298,45.989 132.271,45.150 135.200 C 44.929 135.970,44.490 137.167,44.174 137.860 C 43.858 138.554,43.600 139.318,43.600 139.559 C 43.600 139.800,43.242 141.033,42.805 142.298 C 42.368 143.564,41.846 145.410,41.645 146.400 C 41.030 149.432,39.986 153.706,39.398 155.600 C 39.091 156.590,38.723 158.480,38.580 159.800 C 38.438 161.120,38.069 162.971,37.761 163.914 C 37.452 164.857,37.200 166.769,37.200 168.164 C 37.200 169.558,36.925 171.478,36.589 172.430 C 36.207 173.515,35.836 176.859,35.598 181.381 C 35.388 185.351,35.020 189.500,34.779 190.600 C 34.260 192.971,34.515 211.997,35.135 217.200 C 35.358 219.070,35.727 222.902,35.956 225.715 C 36.185 228.529,36.465 230.981,36.579 231.165 C 36.692 231.349,36.967 233.277,37.189 235.450 C 37.411 237.622,37.857 240.660,38.181 242.200 C 38.504 243.740,38.943 245.990,39.157 247.200 C 39.371 248.410,39.920 251.020,40.379 253.000 C 40.837 254.980,41.462 257.770,41.768 259.200 C 42.074 260.630,42.506 262.250,42.729 262.800 C 42.952 263.350,43.889 266.230,44.812 269.200 C 46.663 275.162,47.526 277.392,50.565 284.075 C 51.134 285.327,51.600 286.482,51.600 286.644 C 51.600 286.805,51.834 287.221,52.120 287.569 C 52.405 287.916,53.073 289.190,53.603 290.400 C 54.771 293.063,59.283 301.111,61.005 303.600 C 61.689 304.590,62.368 305.715,62.512 306.100 C 62.657 306.485,62.961 306.800,63.187 306.800 C 63.414 306.800,63.600 306.997,63.600 307.237 C 63.600 307.477,63.965 308.152,64.410 308.737 C 72.201 318.959,76.829 324.234,82.843 329.742 C 84.249 331.030,86.030 332.663,86.800 333.371 C 88.604 335.029,95.274 340.335,97.600 341.963 C 100.297 343.849,103.593 346.000,103.788 346.000 C 103.882 346.000,104.758 346.539,105.733 347.197 C 106.708 347.855,108.558 348.947,109.844 349.623 C 111.130 350.299,112.366 351.003,112.591 351.186 C 113.966 352.307,127.292 358.400,128.368 358.400 C 128.738 358.400,129.211 358.566,129.420 358.768 C 129.798 359.134,133.327 360.461,136.000 361.242 C 136.770 361.467,137.967 361.910,138.660 362.226 C 139.354 362.542,140.311 362.800,140.787 362.800 C 141.263 362.800,142.046 363.012,142.526 363.271 C 143.983 364.057,151.803 365.928,158.937 367.198 C 161.322 367.622,163.572 368.060,163.937 368.170 C 172.494 370.763,210.328 371.498,230.957 369.472 C 237.094 368.869,242.229 368.306,242.369 368.219 C 242.508 368.133,244.148 367.869,246.011 367.632 C 250.192 367.100,255.814 366.094,259.000 365.307 C 260.320 364.981,262.480 364.476,263.800 364.184 C 265.120 363.893,267.010 363.438,268.000 363.173 C 273.916 361.591,275.523 361.140,276.600 360.758 C 277.260 360.524,278.610 360.092,279.600 359.799 C 282.304 358.996,288.750 356.630,290.878 355.658 C 291.911 355.186,292.870 354.800,293.009 354.800 C 293.367 354.800,303.473 349.734,305.400 348.589 C 306.280 348.066,307.270 347.503,307.600 347.338 C 307.930 347.174,308.830 346.622,309.600 346.112 C 310.370 345.602,311.270 345.014,311.600 344.804 C 323.135 337.471,322.887 338.339,316.808 326.600 C 314.986 323.080,313.233 319.660,312.913 319.000 C 312.593 318.340,311.904 316.990,311.381 316.000 C 310.858 315.010,308.341 310.060,305.786 305.000 C 303.232 299.940,300.988 295.530,300.799 295.200 C 300.339 294.395,296.798 287.308,296.103 285.800 C 295.798 285.140,295.392 284.330,295.200 284.000 C 295.008 283.670,294.390 282.484,293.827 281.363 C 291.929 277.587,290.871 277.285,288.300 279.781 C 286.133 281.887,279.290 287.138,276.888 288.539 C 275.700 289.233,274.159 290.141,273.464 290.558 C 271.258 291.882,264.689 295.055,262.200 296.001 C 260.880 296.502,259.260 297.145,258.600 297.430 C 251.726 300.397,235.998 303.429,222.400 304.409 C 203.451 305.774,174.087 301.949,167.400 297.245 C 167.180 297.090,165.920 296.538,164.600 296.018 C 151.370 290.806,133.071 274.589,128.396 263.934 C 128.171 263.420,127.454 262.023,126.804 260.828 C 124.589 256.762,120.400 245.492,120.400 243.600 C 120.400 243.214,120.152 242.291,119.848 241.549 C 119.545 240.807,119.172 239.120,119.020 237.800 C 118.868 236.480,118.497 234.410,118.197 233.200 C 117.897 231.990,117.594 229.380,117.525 227.400 L 117.400 223.800 234.800 223.600 C 299.370 223.490,352.426 223.254,352.703 223.075 C 353.601 222.494,354.404 220.472,354.997 217.304 C 355.316 215.597,355.759 213.480,355.981 212.600 C 356.852 209.148,358.407 200.111,358.404 198.525 C 358.402 197.603,358.715 195.623,359.100 194.125 C 360.133 190.103,360.125 162.112,359.089 157.600 C 358.711 155.950,358.397 153.700,358.392 152.600 C 358.375 148.770,354.907 133.506,352.756 127.792 C 352.340 126.688,352.000 125.515,352.000 125.186 C 352.000 124.857,351.640 123.916,351.200 123.096 C 350.760 122.275,350.400 121.314,350.400 120.962 C 350.400 120.609,350.148 119.754,349.839 119.060 C 348.914 116.982,347.184 113.081,346.619 111.800 C 344.538 107.084,341.267 100.826,339.406 98.000 C 338.754 97.010,338.023 95.840,337.781 95.400 C 336.713 93.455,336.112 92.516,334.800 90.744 C 334.030 89.704,332.950 88.200,332.400 87.403 C 331.850 86.605,331.220 85.738,331.000 85.476 C 330.780 85.214,329.796 83.920,328.814 82.600 C 327.831 81.280,326.346 79.511,325.514 78.668 C 324.681 77.826,324.000 77.032,324.000 76.905 C 324.000 76.559,311.050 63.600,310.704 63.600 C 310.541 63.600,309.901 63.070,309.282 62.423 C 308.357 61.455,304.106 57.967,300.200 54.970 C 299.519 54.447,297.175 52.889,294.830 51.400 C 294.483 51.180,293.191 50.325,291.959 49.500 C 290.726 48.675,289.570 48.000,289.390 48.000 C 289.210 48.000,288.779 47.745,288.431 47.432 C 287.349 46.460,280.334 42.763,275.900 40.829 C 273.047 39.584,270.767 38.581,269.140 37.853 C 268.336 37.494,267.434 37.200,267.134 37.200 C 266.834 37.200,265.916 36.840,265.096 36.400 C 264.275 35.960,263.280 35.600,262.886 35.600 C 262.492 35.600,261.463 35.240,260.600 34.800 C 259.737 34.360,258.700 34.000,258.296 34.000 C 257.891 34.000,257.074 33.751,256.480 33.447 C 255.886 33.143,254.590 32.762,253.600 32.600 C 252.610 32.438,251.350 32.078,250.800 31.800 C 250.250 31.522,248.990 31.171,248.000 31.020 C 247.010 30.869,245.390 30.493,244.400 30.186 C 243.410 29.879,241.160 29.447,239.400 29.226 C 237.640 29.006,235.570 28.634,234.800 28.400 C 234.030 28.167,231.600 27.872,229.400 27.746 C 227.200 27.620,224.500 27.241,223.400 26.904 C 221.117 26.205,187.975 25.790,182.400 26.391 M212.200 27.198 C 219.556 27.770,230.079 28.802,230.366 28.979 C 230.507 29.066,232.148 29.335,234.011 29.577 C 235.875 29.819,238.480 30.270,239.800 30.580 C 241.120 30.890,244.270 31.629,246.800 32.222 C 252.224 33.495,256.802 34.774,260.400 36.022 C 269.086 39.037,268.505 38.797,277.800 43.225 C 302.476 54.980,324.764 75.470,338.907 99.400 C 340.995 102.935,346.800 114.592,346.800 115.253 C 346.800 115.566,347.034 116.177,347.321 116.611 C 347.607 117.045,348.346 118.750,348.961 120.400 C 349.577 122.050,350.333 123.991,350.641 124.714 C 350.948 125.436,351.208 126.336,351.218 126.714 C 351.227 127.091,351.506 128.120,351.838 129.000 C 352.961 131.981,355.786 144.154,356.989 151.200 C 359.197 164.127,359.360 185.902,357.334 197.400 C 357.024 199.160,356.515 202.130,356.204 204.000 C 355.561 207.861,354.340 214.006,353.358 218.330 C 352.807 220.755,352.524 221.325,351.720 221.630 C 351.133 221.853,304.385 222.000,233.798 222.000 C 169.475 222.000,116.773 222.135,116.682 222.300 C 116.592 222.465,116.735 225.030,117.001 228.000 C 120.669 269.021,147.994 297.643,189.352 303.784 C 208.052 306.560,239.683 304.843,250.926 300.441 C 251.545 300.198,252.395 300.000,252.814 300.000 C 255.326 300.000,272.939 292.053,277.301 288.952 C 278.346 288.208,279.310 287.600,279.442 287.600 C 279.719 287.600,286.802 282.015,288.600 280.380 C 291.474 277.765,291.065 277.296,298.216 291.400 C 302.941 300.720,313.625 321.752,318.488 331.306 C 320.219 334.707,320.817 336.277,320.644 336.967 C 320.299 338.343,312.873 343.629,304.400 348.530 C 296.086 353.339,279.797 359.581,267.200 362.786 C 238.779 370.018,196.830 372.196,167.800 367.949 C 155.009 366.078,151.883 365.446,145.126 363.363 C 144.095 363.045,142.475 362.621,141.526 362.421 C 140.577 362.220,138.540 361.588,137.000 361.015 C 135.460 360.443,133.120 359.605,131.800 359.153 C 127.834 357.797,123.972 356.125,117.200 352.834 C 94.101 341.609,73.637 322.944,59.606 300.301 C 51.678 287.509,43.633 266.737,40.587 251.200 C 39.975 248.079,39.369 245.061,38.356 240.089 C 37.940 238.048,37.600 235.604,37.600 234.658 C 37.600 233.713,37.348 231.063,37.040 228.770 C 35.956 220.706,35.881 185.348,36.933 178.800 C 37.269 176.710,37.650 173.650,37.779 172.000 C 37.908 170.350,38.275 167.650,38.594 166.000 C 40.048 158.473,39.937 158.987,41.864 150.800 C 42.408 148.490,43.008 146.150,43.198 145.600 C 43.387 145.050,44.390 141.900,45.425 138.600 C 47.173 133.029,48.405 129.653,49.825 126.540 C 50.141 125.846,50.403 125.126,50.406 124.940 C 50.419 124.198,59.596 106.424,60.598 105.200 C 60.868 104.870,61.604 103.700,62.233 102.600 C 65.140 97.518,73.681 86.498,79.906 79.800 C 81.746 77.820,83.482 75.930,83.765 75.600 C 84.048 75.270,86.332 73.137,88.840 70.860 C 91.348 68.583,94.043 66.135,94.830 65.421 C 96.273 64.110,104.421 57.710,106.614 56.164 C 110.538 53.398,114.360 50.823,115.400 50.245 C 116.060 49.878,117.230 49.191,118.000 48.719 C 121.510 46.566,128.673 42.879,134.000 40.482 C 134.990 40.036,136.807 39.206,138.039 38.636 C 139.270 38.066,140.502 37.600,140.777 37.600 C 141.052 37.600,141.754 37.344,142.338 37.032 C 145.746 35.208,163.113 30.489,169.794 29.570 C 171.550 29.329,173.104 29.060,173.245 28.972 C 173.523 28.801,183.228 27.705,188.800 27.216 C 193.789 26.778,206.678 26.768,212.200 27.198 M187.200 91.991 C 185.550 92.169,183.750 92.489,183.200 92.703 C 182.650 92.916,181.300 93.216,180.200 93.368 C 174.583 94.146,164.280 98.124,157.800 102.016 C 147.915 107.954,137.825 118.215,132.839 127.400 C 132.361 128.280,131.536 129.720,131.006 130.600 C 130.475 131.480,129.867 132.578,129.654 133.039 C 129.441 133.500,128.517 135.480,127.602 137.439 C 125.335 142.289,125.305 142.358,124.599 144.400 C 120.018 157.649,118.950 162.488,120.331 163.738 C 121.305 164.619,278.654 164.764,280.400 163.885 C 281.603 163.279,281.837 161.805,281.218 158.728 C 280.982 157.558,280.529 155.160,280.210 153.400 C 279.137 147.478,277.939 143.145,275.397 136.000 C 270.408 121.976,258.957 108.236,246.600 101.449 C 245.940 101.086,245.130 100.618,244.800 100.408 C 241.298 98.181,229.717 94.270,223.400 93.180 C 222.080 92.952,220.190 92.583,219.200 92.359 C 216.947 91.849,191.255 91.553,187.200 91.991 M216.348 93.172 C 216.833 93.432,218.881 93.828,220.900 94.054 C 222.919 94.279,224.892 94.635,225.284 94.845 C 225.676 95.055,227.033 95.407,228.299 95.629 C 229.564 95.850,230.960 96.195,231.400 96.397 C 231.840 96.598,233.884 97.333,235.941 98.030 C 239.341 99.181,244.101 101.395,248.141 103.703 C 252.403 106.139,259.344 112.308,263.012 116.920 C 264.447 118.724,265.886 120.485,266.210 120.834 C 266.535 121.182,266.800 121.622,266.800 121.812 C 266.800 122.117,268.677 125.081,269.199 125.600 C 269.526 125.926,271.600 130.251,271.600 130.608 C 271.600 130.789,271.833 131.221,272.119 131.569 C 272.759 132.348,274.194 135.984,274.815 138.400 C 275.070 139.390,275.420 140.380,275.592 140.600 C 275.765 140.820,276.113 141.978,276.365 143.173 C 276.617 144.368,276.988 145.545,277.190 145.788 C 277.392 146.032,277.757 147.477,278.000 149.000 C 278.243 150.523,278.589 151.956,278.768 152.185 C 278.947 152.413,279.214 154.040,279.361 155.800 C 279.509 157.560,279.826 159.615,280.067 160.367 C 280.909 162.988,286.927 162.812,200.022 162.701 L 121.000 162.600 120.876 161.527 C 120.808 160.936,121.012 159.946,121.329 159.327 C 121.646 158.707,122.038 157.390,122.200 156.400 C 122.362 155.410,122.719 154.150,122.994 153.600 C 123.268 153.050,123.623 151.880,123.782 151.000 C 123.941 150.120,124.218 149.220,124.397 149.000 C 124.575 148.780,124.930 147.790,125.185 146.800 C 125.439 145.810,125.997 144.237,126.424 143.304 C 126.851 142.372,127.200 141.417,127.200 141.184 C 127.200 140.950,127.553 140.093,127.985 139.279 C 128.416 138.466,129.230 136.810,129.792 135.600 C 130.858 133.307,131.289 132.525,132.484 130.716 C 132.878 130.120,133.200 129.377,133.200 129.065 C 133.200 128.753,133.489 128.258,133.842 127.965 C 134.195 127.673,134.652 127.065,134.857 126.616 C 137.464 120.921,148.328 109.498,155.800 104.597 C 158.022 103.140,158.594 102.813,160.100 102.145 C 160.925 101.778,161.600 101.326,161.600 101.139 C 161.600 100.953,161.775 100.800,161.988 100.800 C 162.202 100.800,163.360 100.350,164.563 99.800 C 165.765 99.250,166.895 98.794,167.074 98.786 C 167.253 98.779,168.120 98.425,169.000 98.000 C 169.880 97.575,170.870 97.220,171.200 97.211 C 171.530 97.202,172.280 96.944,172.867 96.638 C 173.454 96.332,174.714 95.954,175.667 95.799 C 176.620 95.644,177.940 95.279,178.600 94.987 C 179.260 94.696,181.411 94.253,183.379 94.003 C 185.348 93.753,187.148 93.426,187.379 93.275 C 188.791 92.353,214.647 92.262,216.348 93.172 " stroke="none" fill="#a4cdec" fill-rule="evenodd"></path><path id="path4" d="M188.800 27.216 C 183.228 27.705,173.523 28.801,173.245 28.972 C 173.104 29.060,171.550 29.329,169.794 29.570 C 165.393 30.175,156.977 32.206,150.400 34.251 C 144.544 36.071,143.388 36.470,142.338 37.032 C 141.754 37.344,141.052 37.600,140.777 37.600 C 140.502 37.600,139.270 38.066,138.039 38.636 C 136.807 39.206,134.990 40.036,134.000 40.482 C 128.673 42.879,121.510 46.566,118.000 48.719 C 117.230 49.191,116.060 49.878,115.400 50.245 C 114.360 50.823,110.538 53.398,106.614 56.164 C 104.421 57.710,96.273 64.110,94.830 65.421 C 94.043 66.135,91.348 68.583,88.840 70.860 C 86.332 73.137,84.048 75.270,83.765 75.600 C 83.482 75.930,81.746 77.820,79.906 79.800 C 73.681 86.498,65.140 97.518,62.233 102.600 C 61.604 103.700,60.868 104.870,60.598 105.200 C 59.596 106.424,50.419 124.198,50.406 124.940 C 50.403 125.126,50.141 125.846,49.825 126.540 C 48.405 129.653,47.173 133.029,45.425 138.600 C 44.390 141.900,43.387 145.050,43.198 145.600 C 42.895 146.479,41.898 150.564,40.415 157.000 C 40.162 158.100,39.779 159.900,39.564 161.000 C 39.349 162.100,38.911 164.350,38.589 166.000 C 38.268 167.650,37.895 170.440,37.761 172.200 C 37.627 173.960,37.272 176.873,36.972 178.674 C 35.909 185.065,35.742 219.889,36.767 221.547 C 37.126 222.127,350.198 222.209,351.722 221.630 C 352.524 221.325,352.807 220.753,353.358 218.330 C 354.340 214.006,355.561 207.861,356.204 204.000 C 356.515 202.130,357.024 199.160,357.334 197.400 C 359.360 185.902,359.197 164.127,356.989 151.200 C 355.786 144.154,352.961 131.981,351.838 129.000 C 351.506 128.120,351.227 127.091,351.218 126.714 C 351.208 126.336,350.948 125.436,350.641 124.714 C 350.333 123.991,349.577 122.050,348.961 120.400 C 348.346 118.750,347.607 117.045,347.321 116.611 C 347.034 116.177,346.800 115.566,346.800 115.253 C 346.800 114.592,340.995 102.935,338.907 99.400 C 326.725 78.788,307.663 59.915,287.000 48.007 C 282.812 45.594,273.144 40.852,268.600 38.982 C 267.055 38.347,265.993 37.963,260.400 36.022 C 256.802 34.774,252.224 33.495,246.800 32.222 C 244.270 31.629,241.120 30.890,239.800 30.580 C 238.480 30.270,235.875 29.819,234.011 29.577 C 232.148 29.335,230.507 29.066,230.366 28.979 C 230.079 28.802,219.556 27.770,212.200 27.198 C 206.678 26.768,193.789 26.778,188.800 27.216 M217.800 28.179 C 222.420 28.536,227.396 29.091,228.857 29.414 C 230.319 29.736,232.214 30.000,233.070 30.000 C 233.926 30.000,235.610 30.274,236.813 30.610 C 238.016 30.945,240.239 31.393,241.754 31.606 C 243.269 31.818,244.725 32.172,244.991 32.393 C 245.257 32.613,246.538 32.963,247.837 33.170 C 250.173 33.542,255.450 34.929,257.000 35.579 C 257.440 35.763,259.420 36.398,261.400 36.990 C 263.380 37.582,265.666 38.412,266.479 38.833 C 267.293 39.255,268.193 39.600,268.479 39.599 C 268.766 39.598,269.720 39.951,270.600 40.383 C 271.480 40.815,273.820 41.912,275.800 42.820 C 277.780 43.729,279.670 44.639,280.000 44.844 C 280.330 45.049,281.140 45.485,281.800 45.814 C 282.460 46.143,283.270 46.583,283.600 46.793 C 283.930 47.002,285.874 48.125,287.919 49.287 C 289.964 50.449,291.951 51.580,292.334 51.800 C 292.716 52.020,293.293 52.428,293.615 52.706 C 294.367 53.355,297.179 55.200,297.418 55.200 C 297.518 55.200,297.939 55.515,298.352 55.900 C 298.766 56.285,299.531 56.920,300.052 57.311 C 309.121 64.116,320.195 74.636,325.400 81.389 C 325.840 81.960,326.714 83.006,327.342 83.714 C 327.971 84.421,328.780 85.450,329.140 86.000 C 329.500 86.550,330.731 88.220,331.874 89.711 C 333.018 91.202,334.066 92.777,334.203 93.211 C 334.341 93.645,334.609 94.000,334.798 94.000 C 335.120 94.000,335.399 94.454,337.069 97.700 C 337.436 98.415,337.867 99.090,338.026 99.200 C 338.184 99.310,338.879 100.480,339.570 101.800 C 340.262 103.120,341.001 104.470,341.214 104.800 C 341.426 105.130,341.780 105.850,341.999 106.400 C 342.219 106.950,342.579 107.670,342.799 108.000 C 343.020 108.330,343.380 109.050,343.599 109.600 C 343.819 110.150,344.167 110.870,344.374 111.200 C 344.581 111.530,345.139 112.700,345.614 113.800 C 346.088 114.900,346.820 116.520,347.239 117.400 C 347.659 118.280,348.002 119.220,348.001 119.489 C 348.000 119.758,348.347 120.748,348.771 121.689 C 349.195 122.630,349.932 124.750,350.407 126.400 C 350.883 128.050,351.610 130.390,352.022 131.600 C 352.435 132.810,352.892 134.520,353.039 135.400 C 353.185 136.280,353.462 137.304,353.653 137.675 C 353.844 138.046,354.196 139.756,354.435 141.475 C 354.674 143.194,355.036 144.801,355.240 145.047 C 355.444 145.293,355.773 147.212,355.972 149.311 C 356.170 151.410,356.553 153.538,356.822 154.041 C 358.643 157.444,358.490 191.946,356.628 197.764 C 356.283 198.844,356.000 200.458,356.000 201.351 C 356.000 202.244,355.656 204.420,355.236 206.187 C 354.815 207.954,354.275 210.480,354.036 211.800 C 353.027 217.357,352.367 220.158,351.946 220.665 C 351.572 221.116,332.244 221.171,233.849 221.004 C 62.266 220.712,37.826 220.554,37.146 219.735 C 36.403 218.840,36.387 188.357,37.126 183.000 C 37.399 181.020,37.785 177.206,37.984 174.526 C 38.182 171.845,38.533 169.298,38.764 168.867 C 38.995 168.436,39.342 166.358,39.536 164.250 C 39.730 162.142,40.093 160.169,40.344 159.867 C 40.595 159.565,40.915 158.167,41.056 156.759 C 41.197 155.352,41.536 153.750,41.809 153.200 C 42.082 152.650,42.440 151.214,42.603 150.010 C 42.766 148.805,43.130 147.455,43.412 147.010 C 43.693 146.564,44.053 145.394,44.212 144.409 C 44.371 143.424,44.728 142.254,45.006 141.809 C 45.283 141.364,45.637 140.280,45.791 139.400 C 45.945 138.520,46.213 137.620,46.386 137.400 C 46.559 137.180,46.979 136.100,47.320 135.000 C 48.156 132.295,49.115 129.662,49.818 128.140 C 50.138 127.446,50.400 126.672,50.400 126.419 C 50.400 126.166,50.746 125.293,51.169 124.479 C 51.592 123.666,53.143 120.570,54.616 117.600 C 57.326 112.135,58.390 110.137,59.939 107.600 C 60.409 106.830,61.019 105.750,61.294 105.200 C 61.569 104.650,61.933 104.020,62.102 103.800 C 62.271 103.580,63.178 102.230,64.117 100.800 C 65.057 99.370,66.585 97.173,67.513 95.917 C 68.441 94.661,69.200 93.536,69.200 93.417 C 69.200 93.298,69.515 92.866,69.900 92.458 C 70.285 92.049,71.050 91.127,71.600 90.408 C 76.897 83.485,93.786 66.000,95.176 66.000 C 95.387 66.000,95.704 65.765,95.880 65.477 C 96.056 65.190,97.730 63.751,99.600 62.280 C 101.470 60.809,103.285 59.334,103.634 59.002 C 103.982 58.671,104.406 58.400,104.576 58.400 C 104.746 58.400,105.450 57.942,106.142 57.383 C 106.834 56.824,107.810 56.059,108.310 55.683 C 108.811 55.307,109.473 54.775,109.781 54.500 C 110.090 54.225,110.474 54.000,110.634 54.000 C 110.794 54.000,111.514 53.550,112.236 53.000 C 112.957 52.450,113.641 52.000,113.756 52.000 C 113.949 52.000,116.492 50.399,117.400 49.706 C 117.620 49.538,118.430 49.080,119.200 48.690 C 119.970 48.299,121.860 47.269,123.400 46.401 C 124.940 45.533,126.650 44.637,127.200 44.411 C 127.750 44.185,128.470 43.824,128.800 43.607 C 129.349 43.248,131.083 42.400,135.400 40.382 C 136.280 39.970,137.497 39.516,138.104 39.372 C 138.711 39.229,139.294 38.971,139.400 38.800 C 139.506 38.628,142.519 37.553,146.096 36.410 C 149.673 35.268,153.191 34.078,153.914 33.766 C 154.636 33.455,155.770 33.200,156.433 33.200 C 157.097 33.200,158.160 32.931,158.796 32.602 C 159.432 32.273,161.255 31.819,162.846 31.594 C 164.436 31.368,165.966 30.995,166.244 30.764 C 166.521 30.533,168.474 30.181,170.583 29.982 C 172.692 29.782,174.728 29.458,175.109 29.261 C 175.489 29.064,179.310 28.682,183.600 28.411 C 187.890 28.141,191.577 27.751,191.794 27.545 C 192.348 27.021,207.619 27.393,217.800 28.179 M193.400 90.665 C 189.546 91.297,192.394 91.598,202.020 91.575 C 209.821 91.556,212.337 91.439,211.600 91.128 C 210.572 90.694,195.550 90.312,193.400 90.665 M182.200 92.231 C 181.100 92.538,179.030 92.995,177.600 93.245 C 176.170 93.495,174.648 93.883,174.218 94.108 C 173.789 94.332,172.619 94.750,171.618 95.037 C 168.338 95.977,165.810 96.913,165.200 97.413 C 164.870 97.684,164.150 98.039,163.600 98.202 C 163.050 98.365,162.404 98.654,162.164 98.845 C 161.924 99.036,160.664 99.754,159.364 100.441 C 158.064 101.129,156.716 101.940,156.369 102.245 C 156.021 102.550,155.609 102.800,155.452 102.800 C 154.976 102.800,150.027 106.467,147.919 108.382 C 147.545 108.722,147.005 109.198,146.719 109.440 C 146.434 109.682,145.728 110.402,145.152 111.040 C 144.576 111.678,143.541 112.648,142.852 113.196 C 142.163 113.743,141.600 114.334,141.600 114.509 C 141.600 114.684,141.015 115.391,140.300 116.081 C 138.882 117.450,136.991 119.958,134.321 124.014 C 131.825 127.804,131.643 128.098,131.113 129.200 C 130.848 129.750,130.310 130.629,129.916 131.154 C 129.522 131.679,129.200 132.422,129.200 132.805 C 129.200 133.188,128.935 133.722,128.611 133.991 C 128.286 134.260,127.909 135.080,127.771 135.812 C 127.634 136.545,127.279 137.238,126.983 137.351 C 126.687 137.465,126.325 138.191,126.180 138.965 C 126.035 139.738,125.665 140.580,125.358 140.835 C 125.051 141.090,124.799 141.681,124.798 142.149 C 124.796 142.617,124.513 143.540,124.169 144.200 C 122.922 146.590,121.905 149.781,119.833 157.799 C 118.572 162.679,118.556 163.384,119.689 164.177 C 121.122 165.181,280.420 165.122,281.425 164.118 C 281.998 163.545,282.071 162.918,281.880 160.218 C 281.547 155.508,278.581 141.806,277.640 140.634 C 277.449 140.395,277.164 139.570,277.007 138.800 C 276.850 138.030,276.469 137.001,276.161 136.514 C 275.852 136.027,275.600 135.390,275.600 135.099 C 275.600 134.807,275.240 133.863,274.800 133.000 C 274.360 132.137,274.000 131.199,274.000 130.915 C 274.000 130.632,273.658 130.058,273.241 129.641 C 272.823 129.223,272.362 128.338,272.216 127.674 C 272.070 127.010,271.677 126.362,271.342 126.233 C 271.007 126.105,270.793 126.135,270.867 126.300 C 270.940 126.465,271.844 128.310,272.877 130.400 C 273.909 132.490,275.042 135.010,275.395 136.000 C 277.919 143.076,279.137 147.476,280.210 153.400 C 280.529 155.160,280.982 157.558,281.218 158.728 C 281.837 161.805,281.603 163.279,280.400 163.885 C 278.534 164.824,121.115 164.611,120.262 163.669 C 119.214 162.511,120.081 157.699,122.760 149.790 C 125.420 141.940,125.016 142.972,127.602 137.439 C 128.517 135.480,129.441 133.500,129.654 133.039 C 129.867 132.578,130.475 131.480,131.006 130.600 C 131.536 129.720,132.361 128.280,132.839 127.400 C 141.739 111.003,162.958 95.757,180.200 93.368 C 181.300 93.216,182.650 92.916,183.200 92.703 C 183.750 92.489,185.550 92.179,187.200 92.013 L 190.200 91.712 187.200 91.692 C 185.550 91.681,183.300 91.923,182.200 92.231 M216.800 92.054 C 218.670 92.245,220.650 92.568,221.200 92.772 C 221.750 92.976,223.100 93.258,224.200 93.401 C 226.145 93.652,228.588 94.298,234.830 96.213 C 237.595 97.062,243.335 99.476,244.800 100.408 C 245.130 100.618,245.940 101.086,246.600 101.449 C 254.952 106.036,262.577 113.268,268.200 121.933 C 269.516 123.961,270.657 125.430,270.734 125.197 C 270.812 124.965,270.545 124.285,270.142 123.687 C 269.739 123.089,269.228 122.311,269.005 121.957 C 267.690 119.869,266.334 117.967,265.525 117.076 C 265.016 116.516,264.150 115.478,263.600 114.769 C 259.830 109.910,253.295 104.526,247.300 101.342 C 246.585 100.963,246.000 100.519,246.000 100.358 C 246.000 100.196,245.472 99.948,244.828 99.806 C 244.183 99.664,243.441 99.290,243.179 98.974 C 242.917 98.658,242.511 98.400,242.277 98.400 C 242.044 98.400,241.121 98.050,240.226 97.623 C 234.386 94.833,221.332 91.565,216.381 91.653 L 213.400 91.706 216.800 92.054 " stroke="none" fill="#1a84ac" fill-rule="evenodd"></path></g></svg>